<?xml version="1.0" encoding="UTF-8" standalone="no"?>
<svg
   version="1.1"
   viewBox="0 0 1024 1024"
   width="1024.0pt"
   height="1024.0pt"
   id="svg2"
   sodipodi:docname="5ae742d-BS_avatar1024w.svg"
   inkscape:version="1.3.2 (091e20e, 2023-11-25)"
   xmlns:inkscape="http://www.inkscape.org/namespaces/inkscape"
   xmlns:sodipodi="http://sodipodi.sourceforge.net/DTD/sodipodi-0.dtd"
   xmlns="http://www.w3.org/2000/svg"
   xmlns:svg="http://www.w3.org/2000/svg">
  <defs
     id="defs2" />
  <sodipodi:namedview
     id="namedview2"
     pagecolor="#505050"
     bordercolor="#eeeeee"
     borderopacity="1"
     inkscape:showpageshadow="0"
     inkscape:pageopacity="0"
     inkscape:pagecheckerboard="0"
     inkscape:deskcolor="#d1d1d1"
     inkscape:document-units="pt"
     inkscape:zoom="0.17285156"
     inkscape:cx="679.77401"
     inkscape:cy="685.55932"
     inkscape:window-width="1616"
     inkscape:window-height="1020"
     inkscape:window-x="0"
     inkscape:window-y="33"
     inkscape:window-maximized="0"
     inkscape:current-layer="svg2" />
  <path
     d="M 0.00 0.00 L 1024.00 0.00 L 1024.00 1024.00 L 0.00 1024.00 L 0.00 0.00 Z"
     fill="#3b8dd0"
     id="path1" />
  <path
     d="m 199.3557,774.15928 c -0.07,-3.66 1.98,-6 3.63,-9.03 71.38,-123.64 142.73,-247.3 214.09,-370.95 0.85,-1.35 1.52,-3.24 2.86,-4.17 45.62,75.14 91.2,150.31 136.83,225.46 1.36,2.11 1.99,4.56 0.28,6.7 -1.3,1.69 -2.94,2.05 -4.99,1.99 -56.34,0 -112.67,0.03 -169.01,0.05 -2.21,0 -4.4,-0.12 -6.59,0.21 -12.93,22.98 -26.36,45.8 -39.5,68.68 -1.07,2.05 -3.09,4.53 -2.57,6.94 0.53,2.73 2.91,4.29 5.64,4.05 114.71,0.07 229.34,0.07 344.04,0.08 3.52,0.27 6.2,-2.37 5.79,-5.92 -0.86,-2.51 -2.51,-4.78 -3.78,-7.11 -72.32,-125.34 -144.66,-250.66 -216.99,-376 -1.08,-1.93 -2.32,-3.72 -3.1,-5.81 11.38,-19.38 22.52,-38.98 33.81,-58.43 1.49,-2.49 2.78,-5.15 4.5,-7.48 2.96,-3.82 8.66,-4.88 12.78,-2.34 3.22,1.83 5.02,6.05 6.89,9.12 98.89,171.46 197.8,342.9 296.69,514.35 1.2,2.14 2.65,4.27 3.49,6.58 1.26,3.61 0.09,7.83 -2.77,10.36 -2.32,2.14 -5.26,2.72 -8.33,2.67 -200,-0.02 -399.99,0 -600,0.13 -2.53,0.02 -4.86,0.13 -7.28,-0.76 -3.81,-1.4 -6.55,-5.28 -6.41,-9.37 z"
     fill="#ffffff"
     id="path2" />
</svg>
